<?xml version="1.0" encoding="UTF-8"?>
<svg id="_레이어_1" data-name="레이어_1" xmlns="http://www.w3.org/2000/svg" version="1.1" xmlns:xlink="http://www.w3.org/1999/xlink" viewBox="0 0 1280 200">
  <!-- Generator: Adobe Illustrator 29.7.1, SVG Export Plug-In . SVG Version: 2.1.1 Build 8)  -->
  <defs>
    <style>
      .st0 {
        filter: url(#luminosity-invert2);
      }

      .st1 {
        fill: url(#_무제_그라디언트_813);
      }

      .st2 {
        fill: url(#_무제_그라디언트_81);
      }

      .st3 {
        mask: url(#mask-1);
      }

      .st4, .st5 {
        fill: #fff;
      }

      .st6 {
        opacity: .3;
      }

      .st7 {
        fill: url(#_무제_그라디언트_812);
      }

      .st8 {
        mask: url(#mask);
      }

      .st9 {
        fill: url(#_무제_그라디언트_8111);
      }

      .st10 {
        stroke-dasharray: 2.99 5.98;
      }

      .st10, .st11, .st12, .st13 {
        fill: none;
        stroke: #fff;
        stroke-linecap: round;
        stroke-linejoin: round;
        stroke-width: 1.2px;
      }

      .st14 {
        fill: url(#_무제_그라디언트_811);
      }

      .st15 {
        fill: url(#_무제_그라디언트_8113);
      }

      .st16 {
        filter: url(#luminosity-invert1);
      }

      .st17, .st5 {
        opacity: .4;
      }

      .st18 {
        mask: url(#mask-2);
      }

      .st19 {
        fill: url(#_무제_그라디언트_814);
      }

      .st20 {
        fill: url(#_무제_그라디언트_817);
      }

      .st21 {
        fill: url(#_무제_그라디언트_815);
      }

      .st22 {
        fill: url(#_무제_그라디언트_818);
      }

      .st23 {
        fill: url(#_무제_그라디언트_819);
      }

      .st12 {
        stroke-dasharray: 3.3 6.6;
      }

      .st24 {
        fill: url(#_무제_그라디언트_816);
      }

      .st25 {
        fill: url(#_무제_그라디언트_8110);
      }

      .st26 {
        fill: url(#_무제_그라디언트_8112);
      }

      .st27 {
        filter: url(#luminosity-invert);
      }

      .st13 {
        stroke-dasharray: 3 6;
      }
    </style>
    <linearGradient id="_무제_그라디언트_81" data-name="무제 그라디언트 81" x1="267.51" y1="170.47" x2="159.06" y2="136.28" gradientUnits="userSpaceOnUse">
      <stop offset="0" stop-color="#fff"/>
      <stop offset=".08" stop-color="#fff" stop-opacity=".96"/>
      <stop offset=".22" stop-color="#fff" stop-opacity=".86"/>
      <stop offset=".4" stop-color="#fff" stop-opacity=".7"/>
      <stop offset=".62" stop-color="#fff" stop-opacity=".47"/>
      <stop offset=".85" stop-color="#fff" stop-opacity=".19"/>
      <stop offset=".99" stop-color="#fff" stop-opacity="0"/>
    </linearGradient>
    <linearGradient id="_무제_그라디언트_811" data-name="무제 그라디언트 81" x1="271.51" y1="157.79" x2="163.06" y2="123.6" xlink:href="#_무제_그라디언트_81"/>
    <linearGradient id="_무제_그라디언트_812" data-name="무제 그라디언트 81" x1="278.14" y1="136.73" x2="169.7" y2="102.55" xlink:href="#_무제_그라디언트_81"/>
    <linearGradient id="_무제_그라디언트_813" data-name="무제 그라디언트 81" x1="293.03" y1="89.53" x2="184.58" y2="55.34" xlink:href="#_무제_그라디언트_81"/>
    <linearGradient id="_무제_그라디언트_814" data-name="무제 그라디언트 81" x1="295.38" y1="82.06" x2="186.94" y2="47.87" xlink:href="#_무제_그라디언트_81"/>
    <linearGradient id="_무제_그라디언트_815" data-name="무제 그라디언트 81" x1="302.88" y1="58.25" x2="194.44" y2="24.07" xlink:href="#_무제_그라디언트_81"/>
    <linearGradient id="_무제_그라디언트_816" data-name="무제 그라디언트 81" x1="312.24" y1="28.57" x2="203.8" y2="-5.62" xlink:href="#_무제_그라디언트_81"/>
    <filter id="luminosity-invert" x="1200" y="55.1" width="58" height="105" color-interpolation-filters="sRGB" filterUnits="userSpaceOnUse">
      <feColorMatrix result="cm" values="-1 0 0 0 1 0 -1 0 0 1 0 0 -1 0 1 0 0 0 1 0"/>
    </filter>
    <mask id="mask" x="1200" y="55.1" width="58" height="105" maskUnits="userSpaceOnUse">
      <g class="st27">
        <image width="58" height="105" transform="translate(1200 55.1)" xlink:href="product_and_product-01-1.png"/>
      </g>
    </mask>
    <filter id="luminosity-invert1" x="718" y="38.1" width="540" height="122" color-interpolation-filters="sRGB" filterUnits="userSpaceOnUse">
      <feColorMatrix result="cm" values="-1 0 0 0 1 0 -1 0 0 1 0 0 -1 0 1 0 0 0 1 0"/>
    </filter>
    <mask id="mask-1" x="718" y="38.1" width="540" height="122" maskUnits="userSpaceOnUse">
      <g class="st16">
        <image width="540" height="122" transform="translate(718 38.1)" xlink:href="product_and_product-01-2.png"/>
      </g>
    </mask>
    <filter id="luminosity-invert2" x="1200" y="55.1" width="58" height="105" color-interpolation-filters="sRGB" filterUnits="userSpaceOnUse">
      <feColorMatrix result="cm" values="-1 0 0 0 1 0 -1 0 0 1 0 0 -1 0 1 0 0 0 1 0"/>
    </filter>
    <mask id="mask-2" x="1200" y="55.1" width="58" height="105" maskUnits="userSpaceOnUse">
      <g class="st0">
        <image width="58" height="105" transform="translate(1200 55.1)" xlink:href="product_and_product-01-3.png"/>
      </g>
    </mask>
    <linearGradient id="_무제_그라디언트_817" data-name="무제 그라디언트 81" x1="985.42" y1="129.55" x2="1147.28" y2="148.25" xlink:href="#_무제_그라디언트_81"/>
    <linearGradient id="_무제_그라디언트_818" data-name="무제 그라디언트 81" x1="984.67" y1="136.01" x2="1146.53" y2="154.7" xlink:href="#_무제_그라디언트_81"/>
    <linearGradient id="_무제_그라디언트_819" data-name="무제 그라디언트 81" x1="985.54" y1="128.45" x2="1147.41" y2="147.15" xlink:href="#_무제_그라디언트_81"/>
    <linearGradient id="_무제_그라디언트_8110" data-name="무제 그라디언트 81" x1="989.15" y1="97.19" x2="1151.02" y2="115.89" xlink:href="#_무제_그라디언트_81"/>
    <linearGradient id="_무제_그라디언트_8111" data-name="무제 그라디언트 81" x1="987.96" y1="107.54" x2="1149.82" y2="126.24" xlink:href="#_무제_그라디언트_81"/>
    <linearGradient id="_무제_그라디언트_8112" data-name="무제 그라디언트 81" x1="989.08" y1="97.8" x2="1150.95" y2="116.5" xlink:href="#_무제_그라디언트_81"/>
    <linearGradient id="_무제_그라디언트_8113" data-name="무제 그라디언트 81" x1="991.19" y1="79.58" x2="1153.05" y2="98.28" xlink:href="#_무제_그라디언트_81"/>
  </defs>
  <g>
    <g class="st6">
      <path class="st4" d="M626.42,115.79c-7.33-5.14-10.62-11.16-10.62-17.51,0-12.15,11.27-22.11,29.77-22.11,17.29,0,28.78,8.76,28.78,21.12,0,7.99-4.6,15.1-14.88,20.36l5.47,4.71,12.04-13.68,16.09,13.46-12.26,14.01,12.26,10.73-15.65,15.76-11.93-10.94c-6.13,3.39-13.68,6.24-24.73,6.24-19.15,0-31.19-8.21-31.19-21.89,0-8.86,5.91-16.42,16.85-20.25ZM643.16,137.9c1.64,0,3.94-.33,5.91-1.2l-8.21-7.66c-2.74,1.2-3.94,2.85-3.94,4.6,0,2.85,3.06,4.27,6.24,4.27ZM650.17,99.81c0-2.19-1.53-3.83-4.16-3.83s-4.16,1.64-4.16,3.83c0,2.3,1.53,3.72,4.16,6.02,2.63-2.3,4.16-3.72,4.16-6.02Z"/>
    </g>
    <g>
      <path class="st5" d="M95.73,55.27c-8.5-6.38-18.82-8.81-31.58-8.81H21.65v109.91h31.27v-34.46h11.23c12.75,0,23.07-2.58,31.58-8.96,8.5-6.38,13.81-16.09,13.81-28.84s-5.31-22.47-13.81-28.84ZM71.29,90.94c-1.04.76-1.98,1.23-3.44,1.6-1.46.37-3.46.59-6.28.59h-4.31v-17.42h4.31c2.82,0,4.82.22,6.28.59,1.46.37,2.4.84,3.44,1.6.78.58,1.4,1.36,1.87,2.44.47,1.08.76,2.47.76,4.08s-.29,2.99-.76,4.08c-.47,1.08-1.09,1.87-1.87,2.44Z"/>
      <path class="st5" d="M147.64,88.67l-.3-.15v-8.05h-29.45v75.9h30.06v-43.72c5.01-4.71,10.47-6.22,16.85-6.22,2.43,0,5.46.3,8.2.91v-27.63c-1.37-.3-3.49-.61-5.46-.61-8.2,0-15.03,3.95-19.89,9.56Z"/>
      <path class="st5" d="M220.05,78.8c-25.05,0-43.11,17.31-43.11,39.62s18.06,39.62,43.11,39.62,43.11-17.31,43.11-39.62-18.06-39.62-43.11-39.62ZM226.41,125.86c-1.6,1.76-3.68,2.78-6.36,2.78s-4.76-1.02-6.36-2.78c-1.6-1.76-2.65-4.34-2.65-7.44s1.05-5.68,2.65-7.44c1.6-1.76,3.68-2.78,6.36-2.78s4.76,1.02,6.36,2.78c1.6,1.76,2.65,4.34,2.65,7.44s-1.05,5.68-2.65,7.44Z"/>
      <path class="st5" d="M320.09,80.92l-.3.15c-3.49-1.37-7.74-2.28-12.14-2.28-21.86,0-39.32,17.15-39.32,41.29s16.24,37.95,34.16,37.95c6.38,0,12.9-1.82,17.91-5.62l.3.15v3.8h29.45V40.39h-30.06v40.53ZM320.09,132.54c-2.13,1.21-5.01,2.28-8.35,2.28-8.65,0-13.06-6.83-13.06-15.94,0-8.2,4.1-15.64,13.81-15.64,3.19,0,5.46.61,7.59,1.67v27.63Z"/>
      <path class="st5" d="M411.17,130.87c-2.73,1.52-5.31,2.43-8.5,2.43-2.58,0-5.01-.61-6.68-2.43-1.67-1.82-2.28-3.95-2.28-8.05v-42.35h-30.06v47.06c0,10.78,2.13,17.15,6.83,22.47s11.84,8.05,20.49,8.05c7.74,0,14.73-2.43,20.49-6.38l.3.15v4.55h29.45v-75.9h-30.06v50.4Z"/>
      <path class="st5" d="M481,118.42c0-8.81,6.98-15.03,17-15.03,6.68,0,13.21,2.43,19.43,6.07v-24.74c-5.62-3.64-13.97-5.92-22.77-5.92-24.59,0-44.02,15.18-44.02,39.92,0,23.23,17,39.32,43.26,39.32,8.5,0,18.06-1.82,24.14-6.07v-24.59c-4.55,3.19-12.9,6.07-19.58,6.07-10.32,0-17.46-5.92-17.46-15.03Z"/>
      <path class="st5" d="M582.86,104.15v-23.68h-18.06v-24.44l-29.91,7.13v17.31h-11.54v23.68h11.54v22.92c0,20.19,9.41,30.97,29.3,30.97,7.29,0,14.42-1.67,18.67-3.64v-22.31c-2.28.91-5.62,1.82-8.96,1.82-6.22,0-9.11-3.64-9.11-10.17v-19.58h18.06Z"/>
    </g>
    <g>
      <line class="st11" x1="65.59" y1="97.3" x2="65.59" y2="117.55"/>
      <line class="st11" x1="145.44" y1="92.43" x2="145.44" y2="109.05"/>
      <line class="st11" x1="181.29" y1="118.42" x2="206.69" y2="118.42"/>
      <line class="st11" x1="233.41" y1="118.42" x2="258.82" y2="118.42"/>
      <line class="st11" x1="220.05" y1="83.15" x2="220.05" y2="103.85"/>
      <line class="st11" x1="220.05" y1="132.99" x2="220.05" y2="153.69"/>
      <line class="st11" x1="122.24" y1="117.74" x2="143.6" y2="117.74"/>
      <line class="st11" x1="25.99" y1="101.42" x2="100.62" y2="101.42"/>
      <line class="st11" x1="65.59" y1="50.82" x2="65.59" y2="71.53"/>
      <line class="st11" x1="233.41" y1="118.42" x2="229.06" y2="118.42"/>
      <path class="st11" d="M229.06,118.42c0,3.11-1.05,5.68-2.65,7.44-1.6,1.76-3.68,2.78-6.36,2.78s-4.76-1.02-6.36-2.78c-1.6-1.76-2.65-4.34-2.65-7.44s1.05-5.68,2.65-7.44c1.6-1.76,3.68-2.78,6.36-2.78s4.76,1.02,6.36,2.78c1.6,1.76,2.65,4.34,2.65,7.44Z"/>
      <path class="st11" d="M233.41,118.42c0-4.1-1.4-7.74-3.78-10.36-2.37-2.62-5.71-4.21-9.58-4.21s-7.21,1.59-9.58,4.21c-2.37,2.62-3.78,6.26-3.78,10.36s1.4,7.74,3.78,10.36,5.71,4.21,9.58,4.21,7.21-1.59,9.58-4.21,3.78-6.26,3.78-10.36Z"/>
      <line class="st11" x1="229.63" y1="128.78" x2="226.41" y2="125.86"/>
      <line class="st11" x1="220.05" y1="132.99" x2="220.05" y2="128.65"/>
      <line class="st11" x1="210.47" y1="128.78" x2="213.69" y2="125.86"/>
      <line class="st11" x1="206.69" y1="118.42" x2="211.04" y2="118.42"/>
      <line class="st11" x1="210.47" y1="108.06" x2="213.69" y2="110.98"/>
      <line class="st11" x1="220.05" y1="103.85" x2="220.05" y2="108.19"/>
      <line class="st11" x1="229.63" y1="108.06" x2="226.41" y2="110.98"/>
      <path class="st11" d="M231.24,118.42c0,3.6-1.23,6.71-3.21,8.9s-4.7,3.5-7.97,3.5-5.99-1.31-7.97-3.5-3.21-5.3-3.21-8.9,1.23-6.71,3.21-8.9c1.99-2.19,4.7-3.5,7.97-3.5s5.99,1.31,7.97,3.5c1.99,2.19,3.21,5.3,3.21,8.9Z"/>
      <line class="st11" x1="176.94" y1="118.42" x2="181.29" y2="118.42"/>
      <path class="st11" d="M181.29,118.42c0-9.99,3.98-18.67,10.78-25,6.8-6.33,16.47-10.28,27.99-10.28s21.19,3.95,27.99,10.28c6.8,6.33,10.78,15.01,10.78,25s-3.98,18.67-10.78,25c-6.8,6.33-16.47,10.28-27.99,10.28s-21.19-3.95-27.99-10.28c-6.8-6.33-10.78-15.01-10.78-25Z"/>
      <path class="st11" d="M176.94,118.42c0,11.16,4.52,21.06,12.16,28.18,7.65,7.12,18.42,11.44,30.95,11.44s23.3-4.33,30.95-11.44c7.65-7.12,12.16-17.02,12.16-28.18s-4.52-21.06-12.16-28.18c-7.65-7.12-18.43-11.44-30.95-11.44s-23.3,4.33-30.95,11.44c-7.65,7.12-12.16,17.02-12.16,28.18Z"/>
      <line class="st11" x1="189.1" y1="90.24" x2="192.06" y2="93.42"/>
      <line class="st11" x1="220.05" y1="78.8" x2="220.05" y2="83.15"/>
      <line class="st11" x1="251" y1="90.24" x2="248.04" y2="93.42"/>
      <line class="st11" x1="263.16" y1="118.42" x2="258.82" y2="118.42"/>
      <line class="st11" x1="251" y1="146.6" x2="248.04" y2="143.42"/>
      <line class="st11" x1="220.05" y1="158.04" x2="220.05" y2="153.69"/>
      <line class="st11" x1="189.1" y1="146.6" x2="192.06" y2="143.42"/>
      <path class="st11" d="M179.11,118.42c0-10.57,4.25-19.87,11.47-26.59,7.22-6.72,17.45-10.86,29.47-10.86s22.25,4.14,29.47,10.86c7.22,6.72,11.47,16.02,11.47,26.59s-4.25,19.87-11.47,26.59c-7.22,6.72-17.45,10.86-29.47,10.86s-22.25-4.14-29.47-10.86c-7.22-6.72-11.47-16.02-11.47-26.59Z"/>
      <line class="st11" x1="117.89" y1="80.47" x2="122.24" y2="84.82"/>
      <path class="st11" d="M122.24,84.82h20.76"/>
      <line class="st11" x1="142.99" y1="84.82" x2="147.34" y2="80.47"/>
      <path class="st11" d="M147.34,80.47h-29.45"/>
      <path class="st11" d="M142.99,84.82v6.38"/>
      <line class="st11" x1="142.99" y1="91.2" x2="147.34" y2="88.51"/>
      <path class="st11" d="M147.34,88.51v-8.05"/>
      <path class="st11" d="M142.99,91.2c1.91.96,3.82,1.91,5.73,2.87"/>
      <line class="st11" x1="148.72" y1="94.07" x2="147.64" y2="88.67"/>
      <path class="st11" d="M147.64,88.67c-.1-.05-.2-.1-.3-.15"/>
      <line class="st11" x1="148.72" y1="94.07" x2="150.93" y2="91.51"/>
      <line class="st11" x1="150.93" y1="91.51" x2="147.64" y2="88.67"/>
      <path class="st11" d="M150.93,91.51c4.2-4.85,9.8-8.06,16.6-8.06.36,0,.73.01,1.12.04"/>
      <line class="st11" x1="168.65" y1="83.49" x2="168.92" y2="79.15"/>
      <path class="st11" d="M168.92,79.15c-.46-.03-.93-.05-1.39-.05-8.2,0-15.03,3.95-19.89,9.56"/>
      <line class="st11" x1="168.65" y1="83.49" x2="172.99" y2="79.71"/>
      <path class="st11" d="M172.99,79.71c-1.05-.23-2.54-.47-4.08-.56"/>
      <path class="st11" d="M168.65,83.49v18.79"/>
      <line class="st11" x1="168.65" y1="102.28" x2="172.99" y2="107.34"/>
      <path class="st11" d="M172.99,107.34v-27.63"/>
      <line class="st11" x1="168.65" y1="102.28" x2="168.26" y2="106.6"/>
      <path class="st11" d="M168.26,106.6c1.57.15,3.2.4,4.74.74"/>
      <path class="st11" d="M168.65,102.28c-1.37-.13-2.69-.2-3.85-.2-3.53,0-7.01.42-10.36,1.59-3.36,1.16-6.55,3.08-9.46,5.82"/>
      <line class="st11" x1="144.97" y1="109.48" x2="147.95" y2="112.65"/>
      <path class="st11" d="M147.95,112.65c2.5-2.35,5.12-3.91,7.91-4.88s5.75-1.35,8.94-1.35c1.06,0,2.24.06,3.46.17"/>
      <line class="st11" x1="144.97" y1="109.48" x2="143.6" y2="110.77"/>
      <line class="st11" x1="143.6" y1="110.77" x2="147.95" y2="112.65"/>
      <path class="st11" d="M143.6,110.77v41.25"/>
      <line class="st11" x1="143.6" y1="152.02" x2="147.95" y2="156.37"/>
      <path class="st11" d="M147.95,156.37v-43.72"/>
      <path class="st11" d="M143.6,152.02h-21.36"/>
      <line class="st11" x1="122.24" y1="152.02" x2="117.89" y2="156.37"/>
      <path class="st11" d="M117.89,156.37h30.06"/>
      <path class="st11" d="M122.24,152.02v-67.21"/>
      <path class="st11" d="M117.89,80.47v75.9"/>
      <line class="st11" x1="132.61" y1="80.47" x2="132.61" y2="84.82"/>
      <path class="st11" d="M120.06,82.64h25.1"/>
      <line class="st11" x1="147.34" y1="84.49" x2="142.99" y2="88.01"/>
      <path class="st11" d="M145.17,82.64v7.21"/>
      <line class="st11" x1="147.49" y1="88.59" x2="145.86" y2="92.63"/>
      <path class="st11" d="M145.17,89.86c1.01.5,2.01,1.01,3.02,1.51"/>
      <line class="st11" x1="148.18" y1="91.37" x2="149.29" y2="90.09"/>
      <line class="st11" x1="167.53" y1="79.1" x2="167.53" y2="83.45"/>
      <path class="st11" d="M149.29,90.09c4.53-5.24,10.74-8.81,18.24-8.81.41,0,.83.02,1.25.04"/>
      <path class="st11" d="M168.78,81.32c.77.05,1.51.16,2.04.28"/>
      <line class="st11" x1="172.99" y1="93.52" x2="168.65" y2="92.88"/>
      <path class="st11" d="M170.82,81.6v23.21"/>
      <path class="st11" d="M170.82,104.81c-.77-.17-1.59-.29-2.37-.37"/>
      <line class="st11" x1="164.8" y1="106.43" x2="164.8" y2="102.08"/>
      <line class="st11" x1="155.86" y1="107.77" x2="154.43" y2="103.67"/>
      <path class="st11" d="M168.45,104.44c-1.29-.12-2.55-.19-3.65-.19-3.36,0-6.58.4-9.65,1.47s-5.98,2.8-8.69,5.35"/>
      <line class="st11" x1="146.46" y1="111.07" x2="145.77" y2="111.71"/>
      <line class="st11" x1="147.95" y1="134.51" x2="143.6" y2="131.4"/>
      <path class="st11" d="M145.77,111.71v42.49"/>
      <line class="st11" x1="132.92" y1="156.37" x2="132.92" y2="152.02"/>
      <path class="st11" d="M145.77,154.2h-25.71"/>
      <line class="st11" x1="117.89" y1="118.42" x2="122.24" y2="118.42"/>
      <path class="st11" d="M120.06,154.2v-71.56"/>
      <line class="st11" x1="61.57" y1="97.47" x2="61.57" y2="93.12"/>
      <path class="st11" d="M61.57,93.12h-4.31"/>
      <line class="st11" x1="57.26" y1="93.12" x2="52.92" y2="97.47"/>
      <path class="st11" d="M52.92,97.47h8.65"/>
      <path class="st11" d="M57.26,93.12v-17.42"/>
      <line class="st11" x1="57.26" y1="75.71" x2="52.92" y2="71.36"/>
      <path class="st11" d="M52.92,71.36v26.11"/>
      <line class="st11" x1="57.26" y1="75.71" x2="57.26" y2="71.36"/>
      <path class="st11" d="M57.26,71.36h-4.35"/>
      <path class="st11" d="M57.26,75.71h4.31c2.82,0,4.82.22,6.28.59,1.46.37,2.4.84,3.44,1.6.78.58,1.4,1.36,1.87,2.44.47,1.08.76,2.47.76,4.08s-.29,2.99-.76,4.08c-.47,1.08-1.09,1.87-1.87,2.44-1.04.76-1.98,1.23-3.44,1.6-1.46.37-3.46.59-6.28.59"/>
      <path class="st11" d="M61.57,97.47c3.04,0,5.39-.23,7.34-.72,1.95-.49,3.51-1.25,4.95-2.31,1.44-1.06,2.54-2.5,3.28-4.21.74-1.71,1.12-3.68,1.12-5.81s-.38-4.1-1.12-5.81c-.74-1.71-1.84-3.15-3.28-4.21-1.44-1.06-3-1.82-4.95-2.31-1.95-.49-4.31-.72-7.34-.72h-4.31"/>
      <line class="st11" x1="57.24" y1="97.47" x2="59.42" y2="93.12"/>
      <path class="st11" d="M61.57,95.3h-6.48"/>
      <line class="st11" x1="52.92" y1="84.42" x2="57.26" y2="84.42"/>
      <path class="st11" d="M55.09,95.3v-21.76"/>
      <path class="st11" d="M55.09,73.53h2.17"/>
      <line class="st11" x1="61.57" y1="71.36" x2="61.57" y2="75.71"/>
      <line class="st11" x1="68.91" y1="72.08" x2="67.85" y2="76.3"/>
      <line class="st11" x1="73.87" y1="74.4" x2="71.29" y2="77.9"/>
      <line class="st11" x1="77.15" y1="78.61" x2="73.16" y2="80.34"/>
      <line class="st11" x1="78.27" y1="84.42" x2="73.92" y2="84.42"/>
      <line class="st11" x1="77.15" y1="90.22" x2="73.16" y2="88.49"/>
      <line class="st11" x1="73.87" y1="94.44" x2="71.29" y2="90.94"/>
      <line class="st11" x1="68.91" y1="96.75" x2="67.85" y2="92.54"/>
      <path class="st11" d="M57.26,73.53h4.31c2.93,0,5.1.22,6.81.66,1.71.43,2.96,1.04,4.2,1.96,1.11.82,1.97,1.93,2.58,3.33s.94,3.08.94,4.94-.34,3.55-.94,4.94-1.47,2.51-2.58,3.33c-1.24.91-2.49,1.53-4.2,1.96s-3.88.65-6.81.65"/>
      <line class="st11" x1="25.99" y1="46.46" x2="25.99" y2="50.81"/>
      <path class="st11" d="M25.99,50.81h38.16c12.2,0,21.39,2.26,28.97,7.94,7.5,5.63,12.08,13.82,12.08,25.37s-4.58,19.74-12.08,25.37c-7.6,5.7-16.8,8.09-28.97,8.09h-11.23"/>
      <line class="st11" x1="52.92" y1="117.57" x2="52.92" y2="121.91"/>
      <path class="st11" d="M52.92,121.91h11.23c12.75,0,23.07-2.58,31.57-8.96,8.5-6.38,13.81-16.09,13.81-28.84s-5.31-22.47-13.81-28.84c-8.5-6.38-18.82-8.81-31.57-8.81H25.99"/>
      <line class="st11" x1="52.92" y1="117.57" x2="48.57" y2="117.57"/>
      <line class="st11" x1="48.57" y1="117.57" x2="52.92" y2="121.91"/>
      <path class="st11" d="M48.57,117.57v34.46"/>
      <line class="st11" x1="48.57" y1="152.02" x2="52.92" y2="156.37"/>
      <path class="st11" d="M52.92,156.37v-34.46"/>
      <path class="st11" d="M48.57,152.02h-22.58"/>
      <line class="st11" x1="25.99" y1="152.02" x2="21.65" y2="156.37"/>
      <path class="st11" d="M21.65,156.37h31.27"/>
      <path class="st11" d="M25.99,152.02V50.81"/>
      <line class="st11" x1="25.99" y1="50.81" x2="21.65" y2="46.46"/>
      <path class="st11" d="M21.65,46.46v109.91"/>
      <path class="st11" d="M25.99,46.46h-4.35"/>
      <line class="st11" x1="64.15" y1="46.46" x2="64.15" y2="50.81"/>
      <line class="st11" x1="95.73" y1="55.27" x2="93.12" y2="58.75"/>
      <line class="st11" x1="109.54" y1="84.11" x2="105.19" y2="84.11"/>
      <line class="st11" x1="95.73" y1="112.96" x2="93.12" y2="109.48"/>
      <line class="st11" x1="64.15" y1="121.91" x2="64.15" y2="117.57"/>
      <path class="st11" d="M25.99,48.64h38.16c12.48,0,22.23,2.34,30.27,8.37,8,6,12.95,14.96,12.95,27.1s-4.94,21.1-12.95,27.1c-8.05,6.04-17.81,8.52-30.27,8.52h-11.23"/>
      <line class="st11" x1="52.92" y1="119.74" x2="50.74" y2="119.74"/>
      <line class="st11" x1="52.92" y1="139.14" x2="48.57" y2="134.79"/>
      <path class="st11" d="M50.74,119.74v34.46"/>
      <line class="st11" x1="37.28" y1="156.37" x2="37.28" y2="152.02"/>
      <path class="st11" d="M50.74,154.2h-26.92"/>
      <line class="st11" x1="21.65" y1="101.42" x2="25.99" y2="101.42"/>
      <path class="st11" d="M23.82,154.2V48.64"/>
      <path class="st11" d="M23.82,48.64h2.17"/>
    </g>
    <g>
      <path class="st2" d="M95.73,55.27c-8.5-6.38-18.82-8.81-31.58-8.81H21.65v109.91h31.27v-34.46h11.23c12.75,0,23.07-2.58,31.58-8.96,8.5-6.38,13.81-16.09,13.81-28.84s-5.31-22.47-13.81-28.84ZM71.29,90.94c-1.04.76-1.98,1.23-3.44,1.6-1.46.37-3.46.59-6.28.59h-4.31v-17.42h4.31c2.82,0,4.82.22,6.28.59,1.46.37,2.4.84,3.44,1.6.78.58,1.4,1.36,1.87,2.44.47,1.08.76,2.47.76,4.08s-.29,2.99-.76,4.08c-.47,1.08-1.09,1.87-1.87,2.44Z"/>
      <path class="st14" d="M147.64,88.67l-.3-.15v-8.05h-29.45v75.9h30.06v-43.72c5.01-4.71,10.47-6.22,16.85-6.22,2.43,0,5.46.3,8.2.91v-27.63c-1.37-.3-3.49-.61-5.46-.61-8.2,0-15.03,3.95-19.89,9.56Z"/>
      <path class="st7" d="M220.05,78.8c-25.05,0-43.11,17.31-43.11,39.62s18.06,39.62,43.11,39.62,43.11-17.31,43.11-39.62-18.06-39.62-43.11-39.62ZM226.41,125.86c-1.6,1.76-3.68,2.78-6.36,2.78s-4.76-1.02-6.36-2.78c-1.6-1.76-2.65-4.34-2.65-7.44s1.05-5.68,2.65-7.44c1.6-1.76,3.68-2.78,6.36-2.78s4.76,1.02,6.36,2.78c1.6,1.76,2.65,4.34,2.65,7.44s-1.05,5.68-2.65,7.44Z"/>
      <path class="st1" d="M320.09,80.92l-.3.15c-3.49-1.37-7.74-2.28-12.14-2.28-21.86,0-39.32,17.15-39.32,41.29s16.24,37.95,34.16,37.95c6.38,0,12.9-1.82,17.91-5.62l.3.15v3.8h29.45V40.39h-30.06v40.53ZM320.09,132.54c-2.13,1.21-5.01,2.28-8.35,2.28-8.65,0-13.06-6.83-13.06-15.94,0-8.2,4.1-15.64,13.81-15.64,3.19,0,5.46.61,7.59,1.67v27.63Z"/>
      <path class="st19" d="M411.17,130.87c-2.73,1.52-5.31,2.43-8.5,2.43-2.58,0-5.01-.61-6.68-2.43-1.67-1.82-2.28-3.95-2.28-8.05v-42.35h-30.06v47.06c0,10.78,2.13,17.15,6.83,22.47s11.84,8.05,20.49,8.05c7.74,0,14.73-2.43,20.49-6.38l.3.15v4.55h29.45v-75.9h-30.06v50.4Z"/>
      <path class="st21" d="M481,118.42c0-8.81,6.98-15.03,17-15.03,6.68,0,13.21,2.43,19.43,6.07v-24.74c-5.62-3.64-13.97-5.92-22.77-5.92-24.59,0-44.02,15.18-44.02,39.92,0,23.23,17,39.32,43.26,39.32,8.5,0,18.06-1.82,24.14-6.07v-24.59c-4.55,3.19-12.9,6.07-19.58,6.07-10.32,0-17.46-5.92-17.46-15.03Z"/>
      <path class="st24" d="M582.86,104.15v-23.68h-18.06v-24.44l-29.91,7.13v17.31h-11.54v23.68h11.54v22.92c0,20.19,9.41,30.97,29.3,30.97,7.29,0,14.42-1.67,18.67-3.64v-22.31c-2.28.91-5.62,1.82-8.96,1.82-6.22,0-9.11-3.64-9.11-10.17v-19.58h18.06Z"/>
    </g>
  </g>
  <g>
    <g class="st17">
      <g>
        <path class="st4" d="M720.44,46.47h37.19c12.45,0,21.71,1.82,29.6,7.44,7.89,5.62,13.21,15.18,13.21,27.17s-5.31,21.56-13.21,27.17c-7.89,5.77-17.15,7.74-29.6,7.74h-17.91v40.38h-19.28V46.47ZM757.03,99.29c7.59,0,12.9-.91,17.15-3.8,4.25-2.88,6.98-8.05,6.98-14.12s-2.73-11.54-6.98-14.42c-4.25-2.88-9.56-3.64-17.15-3.64h-17.31v35.98h17.31Z"/>
        <path class="st4" d="M812.28,81.38h18.22v10.47l.3.15c5.16-7.29,12.9-11.39,21.86-11.39,1.52,0,3.19.15,4.86.61v17.61c-1.82-.45-3.8-.76-5.77-.76-9.11,0-15.94,3.8-21.1,11.08v47.21h-18.37v-74.99Z"/>
        <path class="st4" d="M862.08,118.88c0-22.16,17.31-39.17,40.53-39.17s40.53,17,40.53,39.17-17.31,39.17-40.53,39.17-40.53-17.15-40.53-39.17ZM924.77,118.88c0-12.9-9.56-23.07-22.16-23.07s-22.16,10.17-22.16,23.07,9.41,22.92,22.16,22.92,22.16-10.02,22.16-22.92Z"/>
        <path class="st4" d="M1009.17,151.36l-.3-.15c-5.16,4.1-12.3,6.83-20.65,6.83-18.98,0-35.22-14.57-35.22-37.95s16.39-40.38,39.01-40.38c6.53,0,11.84,1.67,16.55,3.64l.3-.15v-42.81h18.37v115.98h-18.06v-5.01ZM1008.87,136.48v-37.04c-4.1-2.28-9.26-3.95-15.03-3.95-14.27,0-22.31,10.78-22.31,23.99s7.89,23.07,21.25,23.07c6.53,0,11.84-2.58,16.09-6.07Z"/>
        <path class="st4" d="M1097.37,149.69l-.3-.15c-6.38,5.31-14.73,8.5-23.83,8.5-8.35,0-15.18-2.58-20.19-7.89-4.86-5.46-6.68-11.69-6.68-22.16v-46.6h18.37v43.57c0,6.38,1.06,10.32,3.64,13.06,2.58,2.73,6.53,3.95,10.93,3.95,6.68,0,13.06-3.19,17.91-7.13v-53.43h18.37v74.99h-18.22v-6.68Z"/>
        <path class="st4" d="M1171.29,158.04c-24.44,0-41.29-16.39-41.29-39.01s17.91-39.32,41.75-39.32c8.05,0,15.94,1.82,21.86,5.46v17.15c-5.77-3.95-12.9-6.68-20.49-6.68-14.72,0-24.59,9.72-24.59,23.23s10.02,23.07,24.74,23.07c7.89,0,15.79-2.73,20.95-6.83v17.15c-6.07,3.95-14.72,5.77-22.92,5.77Z"/>
        <g>
          <path class="st4" d="M1202.41,81.38h13.21v-19.28l18.37-4.4v23.68h21.25v15.79h-21.25v31.73c0,8.8,3.64,13.36,11.08,13.36,3.64,0,7.29-1.06,10.17-2.28v15.18c-3.49,1.67-9.11,2.88-14.88,2.88-16.7,0-24.74-9.87-24.74-27.32v-33.55h-13.21v-15.79Z"/>
          <g class="st8">
            <path class="st4" d="M1202.41,81.38h13.21v-19.28l18.37-4.4v23.68h21.25v15.79h-21.25v31.73c0,8.8,3.64,13.36,11.08,13.36,3.64,0,7.29-1.06,10.17-2.28v15.18c-3.49,1.67-9.11,2.88-14.88,2.88-16.7,0-24.74-9.87-24.74-27.32v-33.55h-13.21v-15.79Z"/>
          </g>
        </g>
      </g>
      <g class="st3">
        <g>
          <path class="st4" d="M720.44,46.47h37.19c12.45,0,21.71,1.82,29.6,7.44,7.89,5.62,13.21,15.18,13.21,27.17s-5.31,21.56-13.21,27.17c-7.89,5.77-17.15,7.74-29.6,7.74h-17.91v40.38h-19.28V46.47ZM757.03,99.29c7.59,0,12.9-.91,17.15-3.8,4.25-2.88,6.98-8.05,6.98-14.12s-2.73-11.54-6.98-14.42c-4.25-2.88-9.56-3.64-17.15-3.64h-17.31v35.98h17.31Z"/>
          <path class="st4" d="M812.28,81.38h18.22v10.47l.3.15c5.16-7.29,12.9-11.39,21.86-11.39,1.52,0,3.19.15,4.86.61v17.61c-1.82-.45-3.8-.76-5.77-.76-9.11,0-15.94,3.8-21.1,11.08v47.21h-18.37v-74.99Z"/>
          <path class="st4" d="M862.08,118.88c0-22.16,17.31-39.17,40.53-39.17s40.53,17,40.53,39.17-17.31,39.17-40.53,39.17-40.53-17.15-40.53-39.17ZM924.77,118.88c0-12.9-9.56-23.07-22.16-23.07s-22.16,10.17-22.16,23.07,9.41,22.92,22.16,22.92,22.16-10.02,22.16-22.92Z"/>
          <path class="st4" d="M1009.17,151.36l-.3-.15c-5.16,4.1-12.3,6.83-20.65,6.83-18.98,0-35.22-14.57-35.22-37.95s16.39-40.38,39.01-40.38c6.53,0,11.84,1.67,16.55,3.64l.3-.15v-42.81h18.37v115.98h-18.06v-5.01ZM1008.87,136.48v-37.04c-4.1-2.28-9.26-3.95-15.03-3.95-14.27,0-22.31,10.78-22.31,23.99s7.89,23.07,21.25,23.07c6.53,0,11.84-2.58,16.09-6.07Z"/>
          <path class="st4" d="M1097.37,149.69l-.3-.15c-6.38,5.31-14.73,8.5-23.83,8.5-8.35,0-15.18-2.58-20.19-7.89-4.86-5.46-6.68-11.69-6.68-22.16v-46.6h18.37v43.57c0,6.38,1.06,10.32,3.64,13.06,2.58,2.73,6.53,3.95,10.93,3.95,6.68,0,13.06-3.19,17.91-7.13v-53.43h18.37v74.99h-18.22v-6.68Z"/>
          <path class="st4" d="M1171.29,158.04c-24.44,0-41.29-16.39-41.29-39.01s17.91-39.32,41.75-39.32c8.05,0,15.94,1.82,21.86,5.46v17.15c-5.77-3.95-12.9-6.68-20.49-6.68-14.72,0-24.59,9.72-24.59,23.23s10.02,23.07,24.74,23.07c7.89,0,15.79-2.73,20.95-6.83v17.15c-6.07,3.95-14.72,5.77-22.92,5.77Z"/>
          <g>
            <path class="st4" d="M1202.41,81.38h13.21v-19.28l18.37-4.4v23.68h21.25v15.79h-21.25v31.73c0,8.8,3.64,13.36,11.08,13.36,3.64,0,7.29-1.06,10.17-2.28v15.18c-3.49,1.67-9.11,2.88-14.88,2.88-16.7,0-24.74-9.87-24.74-27.32v-33.55h-13.21v-15.79Z"/>
            <g class="st18">
              <path class="st4" d="M1202.41,81.38h13.21v-19.28l18.37-4.4v23.68h21.25v15.79h-21.25v31.73c0,8.8,3.64,13.36,11.08,13.36,3.64,0,7.29-1.06,10.17-2.28v15.18c-3.49,1.67-9.11,2.88-14.88,2.88-16.7,0-24.74-9.87-24.74-27.32v-33.55h-13.21v-15.79Z"/>
            </g>
          </g>
        </g>
      </g>
    </g>
    <g>
      <path class="st11" d="M1100.33,81.38h12.14"/>
      <path class="st11" d="M1097.22,131.7v-47.2"/>
      <path class="st11" d="M1115.58,84.5v68.76"/>
      <path class="st11" d="M1112.47,156.37h-11.98"/>
      <path class="st11" d="M1097.37,153.26v-3.56c-.1-.05-.2-.1-.3-.15-6.38,5.31-14.73,8.5-23.83,8.5-8.35,0-15.18-2.58-20.19-7.89-4.86-5.46-6.68-11.69-6.68-22.16v-46.6h18.37v43.57c0,6.38,1.06,10.32,3.64,13.06,1.95,2.07,4.69,3.27,7.81,3.73"/>
      <polyline class="st13" points="1082.42 141.95 1085.98 141.95 1092.36 138.76 1094.1 137.35"/>
      <path class="st11" d="M1082.42,141.72c4.2-.6,8.2-2.36,11.68-4.63"/>
      <path class="st11" d="M1174.86,79.8c5.61.33,11.03,1.57,15.63,3.7"/>
      <path class="st11" d="M1130.11,115.91c1.46-20.54,17.32-34.83,38.52-36.11"/>
      <path class="st11" d="M1193.61,88.29v10.92"/>
      <path class="st11" d="M1190.49,100.4c-4.28-2.4-9.13-4.09-14.26-4.59"/>
      <path class="st11" d="M1170,95.8c-11.88,1.17-20,9.03-21.3,19.96"/>
      <path class="st11" d="M1168.18,157.95c-21.64-1.27-36.66-15.76-38.07-35.81"/>
      <g>
        <line class="st11" x1="1168.18" y1="158.04" x2="1166.68" y2="158.04"/>
        <polyline class="st10" points="1160.7 158.04 1146.85 158.04 1133.22 144.78"/>
        <polyline class="st11" points="1131.08 142.69 1130 141.65 1130 140.15"/>
        <line class="st12" x1="1130" y1="133.55" x2="1130" y2="126.94"/>
        <line class="st11" x1="1130" y1="123.64" x2="1130" y2="122.14"/>
      </g>
      <path class="st11" d="M1148.7,121.99c1.3,11.02,9.54,18.68,21.45,19.81"/>
      <polyline class="st13" points="1148.52 121.99 1148.52 132.54 1158.54 141.95 1170.15 141.95"/>
      <path class="st11" d="M1191.1,154.01c-4.87,2.33-10.8,3.61-16.69,3.94"/>
      <polyline class="st11" points="1191.1 154.3 1188.14 156.22 1179.49 158.04 1174.41 158.04"/>
      <path class="st11" d="M1176.38,141.81c5.37-.48,10.56-2.15,14.72-4.57"/>
      <polyline class="st11" points="1191.1 137.59 1189.05 139.22 1181.16 141.95 1176.38 141.95"/>
      <path class="st11" d="M1194.22,138.23v10.92"/>
      <path class="st11" d="M1237.25,157.92c-13.63-1.1-20.68-9.64-21.54-24.09"/>
      <path class="st11" d="M1248.18,142.01c2.55-.38,5-1.17,7.06-2.04v15.18c-2.86,1.37-7.14,2.43-11.76,2.77"/>
      <path class="st11" d="M1215.62,127.6v-30.43h-13.21v-15.79h13.21v-19.28c6.12-1.47,12.25-2.93,18.37-4.4v20.57"/>
      <path class="st11" d="M1234.16,132.01c.66,5.59,3.24,8.94,7.79,9.93"/>
      <path class="st11" d="M1255.24,84.5v12.67h-21.25v28.61"/>
      <path class="st11" d="M1237.1,81.38h15.02"/>
      <polyline class="st13" points="1190.49 100.2 1187.84 98.38 1180.71 95.65 1176.23 95.65"/>
      <polyline class="st13" points="1190.49 83.26 1187.69 81.53 1179.79 79.71 1174.86 79.71"/>
      <polyline class="st13" points="1237.25 158.04 1223.66 158.04 1215.62 148.17 1215.62 133.83"/>
      <polyline class="st13" points="1233.99 132.01 1233.99 137.7 1237.63 142.25 1241.95 142.25"/>
      <rect class="st11" x="1076.19" y="138.83" width="6.23" height="6.23"/>
      <rect class="st11" x="1094.1" y="131.7" width="6.23" height="6.23"/>
      <rect class="st11" x="1094.25" y="153.26" width="6.23" height="6.23"/>
      <rect class="st11" x="1094.1" y="78.26" width="6.23" height="6.23"/>
      <rect class="st11" x="1112.47" y="78.26" width="6.23" height="6.23"/>
      <rect class="st11" x="1112.47" y="153.26" width="6.23" height="6.23"/>
      <rect class="st11" x="1191.1" y="149.16" width="6.23" height="6.23"/>
      <rect class="st11" x="1191.1" y="132" width="6.23" height="6.23"/>
      <rect class="st11" x="1190.49" y="99.21" width="6.23" height="6.23"/>
      <rect class="st11" x="1190.49" y="82.06" width="6.23" height="6.23"/>
      <rect class="st11" x="1168.63" y="76.59" width="6.23" height="6.23"/>
      <rect class="st11" x="1126.89" y="115.91" width="6.23" height="6.23"/>
      <rect class="st11" x="1168.18" y="154.93" width="6.23" height="6.23"/>
      <rect class="st11" x="1170.15" y="138.83" width="6.23" height="6.23"/>
      <rect class="st11" x="1145.41" y="115.76" width="6.23" height="6.23"/>
      <rect class="st11" x="1170" y="92.53" width="6.23" height="6.23"/>
      <rect class="st11" x="1212.5" y="127.6" width="6.23" height="6.23"/>
      <rect class="st11" x="1237.25" y="154.93" width="6.23" height="6.23"/>
      <rect class="st11" x="1230.87" y="125.78" width="6.23" height="6.23"/>
      <rect class="st11" x="1241.95" y="139.14" width="6.23" height="6.23"/>
      <rect class="st11" x="1230.87" y="78.26" width="6.23" height="6.23"/>
      <rect class="st11" x="1252.12" y="78.26" width="6.23" height="6.23"/>
    </g>
    <rect class="st4" x="1094.1" y="78.26" width="6.23" height="6.23"/>
    <rect class="st4" x="1112.47" y="78.26" width="6.23" height="6.23"/>
    <rect class="st4" x="1076.19" y="138.83" width="6.23" height="6.23"/>
    <rect class="st4" x="1094.1" y="131.7" width="6.23" height="6.23"/>
    <rect class="st4" x="1094.25" y="153.26" width="6.23" height="6.23"/>
    <rect class="st4" x="1112.47" y="153.26" width="6.23" height="6.23"/>
    <rect class="st4" x="1252.12" y="78.26" width="6.23" height="6.23"/>
    <rect class="st4" x="1230.87" y="78.26" width="6.23" height="6.23"/>
    <rect class="st4" x="1237.25" y="154.93" width="6.23" height="6.23"/>
    <rect class="st4" x="1241.95" y="139.14" width="6.23" height="6.23"/>
    <rect class="st4" x="1230.87" y="125.78" width="6.23" height="6.23"/>
    <rect class="st4" x="1212.5" y="127.6" width="6.23" height="6.23"/>
    <rect class="st4" x="1190.49" y="82.06" width="6.23" height="6.23"/>
    <rect class="st4" x="1190.49" y="99.21" width="6.23" height="6.23"/>
    <rect class="st4" x="1170" y="92.53" width="6.23" height="6.23"/>
    <rect class="st4" x="1168.63" y="76.59" width="6.23" height="6.23"/>
    <rect class="st4" x="1126.89" y="115.91" width="6.23" height="6.23"/>
    <rect class="st4" x="1145.41" y="115.76" width="6.23" height="6.23"/>
    <rect class="st4" x="1191.1" y="132" width="6.23" height="6.23"/>
    <rect class="st4" x="1191.1" y="149.16" width="6.23" height="6.23"/>
    <rect class="st4" x="1170.15" y="138.83" width="6.23" height="6.23"/>
    <rect class="st4" x="1168.18" y="154.93" width="6.23" height="6.23"/>
    <g>
      <path class="st20" d="M720.44,46.47h37.19c12.45,0,21.71,1.82,29.6,7.44,7.89,5.62,13.21,15.18,13.21,27.17s-5.31,21.56-13.21,27.17c-7.89,5.77-17.15,7.74-29.6,7.74h-17.91v40.38h-19.28V46.47ZM757.03,99.29c7.59,0,12.9-.91,17.15-3.8,4.25-2.88,6.98-8.05,6.98-14.12s-2.73-11.54-6.98-14.42c-4.25-2.88-9.56-3.64-17.15-3.64h-17.31v35.98h17.31Z"/>
      <path class="st22" d="M812.28,81.38h18.22v10.47l.3.15c5.16-7.29,12.9-11.39,21.86-11.39,1.52,0,3.19.15,4.86.61v17.61c-1.82-.45-3.8-.76-5.77-.76-9.11,0-15.94,3.8-21.1,11.08v47.21h-18.37v-74.99Z"/>
      <path class="st23" d="M862.08,118.88c0-22.16,17.31-39.17,40.53-39.17s40.53,17,40.53,39.17-17.31,39.17-40.53,39.17-40.53-17.15-40.53-39.17ZM924.77,118.88c0-12.9-9.56-23.07-22.16-23.07s-22.16,10.17-22.16,23.07,9.41,22.92,22.16,22.92,22.16-10.02,22.16-22.92Z"/>
      <path class="st25" d="M1009.17,151.36l-.3-.15c-5.16,4.1-12.3,6.83-20.65,6.83-18.98,0-35.22-14.57-35.22-37.95s16.39-40.38,39.01-40.38c6.53,0,11.84,1.67,16.55,3.64l.3-.15v-42.81h18.37v115.98h-18.06v-5.01ZM1008.87,136.48v-37.04c-4.1-2.28-9.26-3.95-15.03-3.95-14.27,0-22.31,10.78-22.31,23.99s7.89,23.07,21.25,23.07c6.53,0,11.84-2.58,16.09-6.07Z"/>
      <path class="st9" d="M1097.37,149.69l-.3-.15c-6.38,5.31-14.73,8.5-23.83,8.5-8.35,0-15.18-2.58-20.19-7.89-4.86-5.46-6.68-11.69-6.68-22.16v-46.6h18.37v43.57c0,6.38,1.06,10.32,3.64,13.06,2.58,2.73,6.53,3.95,10.93,3.95,6.68,0,13.06-3.19,17.91-7.13v-53.43h18.37v74.99h-18.22v-6.68Z"/>
      <path class="st26" d="M1171.29,158.04c-24.44,0-41.29-16.39-41.29-39.01s17.91-39.32,41.75-39.32c8.05,0,15.94,1.82,21.86,5.46v17.15c-5.77-3.95-12.9-6.68-20.49-6.68-14.72,0-24.59,9.72-24.59,23.23s10.02,23.07,24.74,23.07c7.89,0,15.79-2.73,20.95-6.83v17.15c-6.07,3.95-14.72,5.77-22.92,5.77Z"/>
      <path class="st15" d="M1202.41,81.38h13.21v-19.28l18.37-4.4v23.68h21.25v15.79h-21.25v31.73c0,8.8,3.64,13.36,11.08,13.36,3.64,0,7.29-1.06,10.17-2.28v15.18c-3.49,1.67-9.11,2.88-14.88,2.88-16.7,0-24.74-9.87-24.74-27.32v-33.55h-13.21v-15.79Z"/>
    </g>
  </g>
</svg>